<svg xmlns="http://www.w3.org/2000/svg" width="64" height="64" viewBox="0 0 64 64">
    <g fill="none" fill-rule="evenodd">
        <path stroke="#FFF" stroke-width="3" d="M13.5 17.5h33v33h-33z"/>
        <path fill="#FFF" fill-rule="nonzero" d="M32.669 28.88c.415-.418.99-.677 1.731-.735-.698-1.27-2.067-1.98-3.875-1.855-.828.057-1.434.371-1.867.863-.168.19-.298.394-.394.598-.056.12-.088.208-.1.251a.328.328 0 0 1-.634-.168c.078-.291.272-.704.635-1.115.038-.043.076-.084.116-.125a.333.333 0 0 1-.02-.016c-.553-.49-1.554-.552-2.32-.186-.663.316-1.033.926-1.056 1.562 1.363.05 2.729.798 3.196 1.982a.328.328 0 1 1-.61.241c-.451-1.14-2.086-1.804-3.418-1.493-1.258.293-2.113 1.445-1.875 2.677.219 1.115 1.367 2.058 2.504 2.058a.328.328 0 1 1 0 .656c-1.45 0-2.869-1.165-3.148-2.588a2.935 2.935 0 0 1-.004-.02c-.67.252-1.001.464-1.302.868-.41.542-.61 1.258-.566 1.985.04.634.372 1.08.92 1.388.213.12.444.209.675.271l.255.061h1.246c-.634-.464-1.023-1.079-1.023-1.516a.328.328 0 1 1 .657 0l.004.051c.07.468 1.038 1.459 2.318 1.462l3.28-.003c.028-.283.103-.559.23-.814.657-1.317 1.428-1.804 3.244-1.808h2.145c.016-.326.074-.691.196-1.053.256-.755.74-1.287 1.498-1.45.643-.138 1.264-.174 1.833-.092a2.634 2.634 0 0 0-.223-.835c-.326-.711-.96-1.147-2.039-1.19-1.114-.042-1.764.36-2.104 1.068-.188.392-.25.8-.243 1.097l-.002.063a.328.328 0 0 1-.653-.031v-.152a3.14 3.14 0 0 1 .362-1.371c-.123-.34-.369-.508-.882-.561-.373-.04-.873.273-.893.548l-.01.058a.328.328 0 0 1-.645-.106c.05-.691.909-1.227 1.616-1.153.582.06.99.268 1.245.627zm5.138 2.097c.312.108.6.26.856.46.986.769 1.451 2.34 1.313 3.804-.146 1.551-1.038 2.777-2.526 3.549-1.506.78-3.32.886-4.664.14a.328.328 0 0 1-.075-.057l-.11.077c-.445.294-1.004.426-1.682.355-1.653-.175-2.706-1.377-2.902-2.614l-3.266.001-.03.002c-.03 0-.06 0-.089-.002l-3.16.002a3.607 3.607 0 0 1-1.211-.414c-.728-.409-1.198-1.04-1.254-1.92-.052-.88.19-1.75.696-2.42.422-.564.88-.833 1.783-1.155.075-1.311 1.068-2.426 2.418-2.74.107-.025.215-.045.324-.06.011-.89.519-1.752 1.43-2.185.988-.473 2.272-.394 3.04.287a.327.327 0 0 1 .075.099c.465-.31 1.032-.505 1.707-.55 2.184-.152 3.866.8 4.636 2.471.007.015.012.03.016.044 1.2.108 1.98.679 2.382 1.557.2.436.282.88.293 1.269zm-.345.58a.334.334 0 0 1-.136-.036c-.554-.131-1.198-.116-1.881.03-.502.108-.826.463-1.014 1.018a3.379 3.379 0 0 0-.166 1.137v.018a.328.328 0 0 1-.327.345h-2.47c-1.564.003-2.11.347-2.656 1.444-.575 1.153.315 2.942 2.176 3.139.956.101 1.554-.3 1.916-1.06a3.315 3.315 0 0 0 .27-.883l.022-.153.004-.054-2.172.002a.328.328 0 0 1 0-.656l3.971-.005.081-.008.113-.02c.18-.038.36-.106.526-.21.478-.302.768-.85.768-1.757a.328.328 0 0 1 .657 0c0 1.128-.402 1.887-1.075 2.312-.407.256-.81.34-1.096.34l-1.113.002c-.006.094-.023.24-.059.424a3.96 3.96 0 0 1-.304.947c-.091.191-.196.367-.315.525l.15.072c1.111.5 2.578.378 3.816-.263 1.297-.673 2.05-1.708 2.175-3.027.118-1.262-.282-2.616-1.063-3.225-.231-.18-.5-.311-.798-.398zm-13.364-.674a.328.328 0 1 1 .574-.318 3.15 3.15 0 0 0 .498.622c.4.384.852.609 1.352.609l3.653-.003a.328.328 0 0 1 0 .656l-3.653.003c-.691 0-1.295-.3-1.807-.791a3.464 3.464 0 0 1-.617-.778z"/>
        <g stroke="#FFF" stroke-linecap="round">
            <path d="M23.5 51v3M20.5 51v3M26.5 51v3M29.5 51v3M32.5 51v3M38.5 51v3M35.5 51v3"/>
            <g>
                <path d="M12 27.5h-2M12 24.5h-2M12 30.5h-2M12 33.5h-2M12 36.5h-2M12 42.5h-2M12 39.5h-2"/>
            </g>
        </g>
        <path stroke="#FFF" stroke-width="3" d="M21 11h32.5v32.5"/>
    </g>
</svg>
